# xmcd CD database file
#
# Track frame offsets:
#	150
#	19552
#	29394
#	45941
#	58756
#	70692
#	81060
#	87534
#	103715
#	115124
#	128572
#	140959
#	154438
#	175676
#	185342
#	192600
#	204140
#	216873
#	228711
#	243392
#	258397
#	277549
#	295221
#	309433
#	319240
#	334366
#	343626
#
# Disc length: 4799 seconds
#
# Revision: 1
# Processed by: cddbd v1.5.2PL0 Copyright (c) Steve Scherf et al.
# Submitted via: CDex 1.70beta1
#
DISCID=8a12bd1b
DTITLE=Various Artist - A History Of UK Blues And R&B 1955-2001 cd 2
DYEAR=2002
DGENRE=Blues
TTITLE0=The Yardbirds - New York City Blues
TTITLE1=John Mayall's Bluesbreakers with Eric Clapton - I'm Your Witchdoctor
TTITLE2=The Kinks - Milk Cow Blues
TTITLE3=Savoy Brown Blues Band - I Tried
TTITLE4=All-Stars featuring Jeff Beck - Steelin'
TTITLE5=T S McPhee - Someone To Love Me
TTITLE6=Eric Clapton and Jimmy Page - Choker
TTITLE7=Duffy Power - Mary Open The Door
TTITLE8=The Cryin' Shames - What's News Pussycat
TTITLE9=Chris Farlowe - Cuttin' In
TTITLE10=Jo Ann Kelly - Keep Your Hands Out Of My Pockets
TTITLE11=All-Stars featuring Nicky Hopkins - Piano Shuffle
TTITLE12=The Alan Price Set - Goin' Down Slow
TTITLE13=Eric Clapton - Tribute To Elmore
TTITLE14=Duffy Power - Ain't Coming Round No More
TTITLE15=John Dummer Blues Band - Big Feeling Blues
TTITLE16=Eric Clapton - Freight Loader
TTITLE17=Jeremy Spencer - Who's Knocking
TTITLE18=Rod Stewart - So Much To Say
TTITLE19=Stuff Smith - Howlin' For My Darlin'
TTITLE20=Fleetwood Mac - Love That Burns
TTITLE21=Chicken Shack - Mean Old World
TTITLE22=Eric Clapton and Jimmy Page - Draggin' My Tail
TTITLE23=Dharma Blues Band - Roll 'Em Pete
TTITLE24=Duster Bennett - I've Learned To Love (Since I've Been With You)
TTITLE25=Dave Kelly - All Night Long
TTITLE26=Fleetwood Mac - Talk To Me Baby
EXTD=YEAR: 2002
EXTT0=
EXTT1=
EXTT2=
EXTT3=
EXTT4=
EXTT5=
EXTT6=
EXTT7=
EXTT8=
EXTT9=
EXTT10=
EXTT11=
EXTT12=
EXTT13=
EXTT14=
EXTT15=
EXTT16=
EXTT17=
EXTT18=
EXTT19=
EXTT20=
EXTT21=
EXTT22=
EXTT23=
EXTT24=
EXTT25=
EXTT26=
PLAYORDER=
